<svg width="21" height="21" viewBox="0 0 21 21" fill="none" xmlns="http://www.w3.org/2000/svg">
<path d="M1.11612 18.0866C0.627961 18.5747 0.627961 19.3662 1.11612 19.8543C1.60427 20.3425 2.39573 20.3425 2.88388 19.8543L1.11612 18.0866ZM20.2206 1.9999C20.2206 1.30954 19.6609 0.749897 18.9706 0.749897L7.72056 0.749897C7.03021 0.749897 6.47056 1.30954 6.47056 1.9999C6.47056 2.69025 7.03021 3.2499 7.72056 3.2499H17.7206V13.2499C17.7206 13.9403 18.2802 14.4999 18.9706 14.4999C19.6609 14.4999 20.2206 13.9403 20.2206 13.2499L20.2206 1.9999ZM2.88388 19.8543L19.8544 2.88378L18.0867 1.11601L1.11612 18.0866L2.88388 19.8543Z" fill="black"/>
</svg>
