<svg width="21" height="21" viewBox="0 0 21 21" fill="none" xmlns="http://www.w3.org/2000/svg">
<path d="M1.11612 18.0868C0.627961 18.575 0.627961 19.3664 1.11612 19.8546C1.60427 20.3427 2.39573 20.3427 2.88388 19.8546L1.11612 18.0868ZM20.2206 2.00014C20.2206 1.30978 19.6609 0.750141 18.9706 0.750141L7.72056 0.750141C7.03021 0.750141 6.47056 1.30978 6.47056 2.00014C6.47056 2.6905 7.03021 3.25014 7.72056 3.25014H17.7206V13.2501C17.7206 13.9405 18.2802 14.5001 18.9706 14.5001C19.6609 14.5001 20.2206 13.9405 20.2206 13.2501L20.2206 2.00014ZM2.88388 19.8546L19.8544 2.88402L18.0867 1.11626L1.11612 18.0868L2.88388 19.8546Z" fill="white"/>
</svg>
